M48
; DRILL file {KiCad (5.1.6)-1} date 09/19/20 19:59:08
; FORMAT={-:-/ absolute / inch / decimal}
; #@! TF.CreationDate,2020-09-19T19:59:08-06:00
; #@! TF.GenerationSoftware,Kicad,Pcbnew,(5.1.6)-1
FMAT,2
INCH
T1C0.0315
T2C0.0320
T3C0.0350
T4C0.0393
T5C0.0400
T6C0.0500
T7C0.1300
%
G90
G05
T1
X3.4Y-4.6
X3.5Y-4.6
X4.0Y-5.3
X3.7Y-4.6
X3.8Y-4.6
X4.0Y-4.6
X4.1Y-4.6
X4.3Y-4.9
X4.3Y-5.0
X4.1Y-5.3
T2
X4.8Y-4.9
X4.9Y-4.9
X3.0Y-3.55
X3.0Y-3.85
X3.2Y-3.3
X3.2Y-3.6
X6.35Y-5.35
X6.45Y-5.35
X6.55Y-5.35
X3.75Y-3.55
X3.75Y-3.85
X5.6Y-3.55
X5.6Y-3.85
X4.8Y-4.4
X4.9Y-4.4
X4.8Y-4.65
X4.9Y-4.65
X4.3Y-3.3
X4.3Y-3.6
X5.05Y-3.3
X5.05Y-3.6
X4.45Y-3.55
X4.45Y-3.85
X5.15Y-6.15
X5.45Y-6.15
X5.15Y-4.4
X5.45Y-4.4
X4.15Y-3.55
X4.15Y-3.85
X4.85Y-3.55
X4.85Y-3.85
X3.55Y-3.3
X3.55Y-3.6
X5.75Y-3.3
X5.75Y-3.6
X5.15Y-4.9
X5.45Y-4.9
X5.25Y-3.55
X5.25Y-3.85
X4.8Y-5.4
X4.9Y-5.4
X4.8Y-6.15
X4.9Y-6.15
X5.4Y-3.3
X5.4Y-3.6
X3.95Y-3.3
X3.95Y-3.6
X4.65Y-3.3
X4.65Y-3.6
X3.6Y-5.55
X3.7Y-5.55
X3.95Y-5.55
X4.35Y-5.55
X5.15Y-5.15
X5.45Y-5.15
X3.4Y-4.8
X3.4Y-5.1
X3.5Y-4.8
X3.5Y-5.1
X3.6Y-4.8
X3.6Y-5.1
X3.7Y-4.8
X3.7Y-5.1
X3.8Y-4.8
X3.8Y-5.1
X3.9Y-4.8
X3.9Y-5.1
X4.0Y-4.8
X4.0Y-5.1
X4.1Y-4.8
X4.1Y-5.1
X5.15Y-5.4
X5.45Y-5.4
X4.8Y-5.65
X4.9Y-5.65
X4.8Y-5.15
X4.9Y-5.15
X4.8Y-5.9
X4.9Y-5.9
X5.15Y-4.65
X5.45Y-4.65
X5.15Y-5.9
X5.45Y-5.9
X5.15Y-5.65
X5.45Y-5.65
X3.4Y-3.55
X3.4Y-3.85
T3
X3.75Y-6.0
X3.75Y-6.1
X3.75Y-6.2
X3.25Y-6.05
X3.25Y-6.15
X3.25Y-6.25
X6.45Y-5.8
X6.45Y-5.9
X6.45Y-6.0
X7.65Y-3.75
X7.65Y-3.85
X7.65Y-3.95
X7.65Y-4.05
X7.65Y-4.15
X7.65Y-4.25
X7.65Y-4.35
X7.65Y-4.45
X7.65Y-4.55
X7.65Y-4.65
X7.65Y-4.75
X7.65Y-4.85
X7.65Y-4.95
X7.65Y-5.05
X7.25Y-2.8
X7.35Y-2.8
X7.45Y-2.8
X7.55Y-2.8
X7.65Y-2.8
X7.75Y-2.8
X7.85Y-2.8
X7.95Y-2.8
X5.9Y-4.9
X5.9Y-5.0
X5.9Y-5.1
X5.9Y-5.2
X5.9Y-5.3
X5.9Y-5.4
X5.9Y-5.5
X5.9Y-5.6
X3.85Y-4.15
X3.95Y-4.15
X4.05Y-4.15
X4.15Y-4.15
X4.25Y-4.15
X4.35Y-4.15
X4.45Y-4.15
X4.55Y-4.15
X7.2Y-3.75
X7.2Y-3.85
X7.2Y-3.95
X7.2Y-4.05
X7.2Y-4.15
X7.2Y-4.25
X7.2Y-4.35
X7.2Y-4.45
X7.2Y-4.55
X7.2Y-4.65
X7.2Y-4.75
X7.25Y-3.2
X7.35Y-3.2
X7.45Y-3.2
X7.55Y-3.2
X7.65Y-3.2
X7.75Y-3.2
X7.85Y-3.2
X7.95Y-3.2
X3.9Y-5.8
X4.0Y-5.8
T4
X5.5615Y-2.7221
X5.5615Y-2.9779
X5.7385Y-2.7221
X5.7385Y-2.9779
X3.0115Y-2.7221
X3.0115Y-2.9779
X3.1885Y-2.7221
X3.1885Y-2.9779
X3.3615Y-2.7221
X3.3615Y-2.9779
X3.5385Y-2.7221
X3.5385Y-2.9779
X3.7615Y-2.7221
X3.7615Y-2.9779
X3.9385Y-2.7221
X3.9385Y-2.9779
X4.1115Y-2.7221
X4.1115Y-2.9779
X4.2885Y-2.7221
X4.2885Y-2.9779
X5.2115Y-2.7221
X5.2115Y-2.9779
X5.3885Y-2.7221
X5.3885Y-2.9779
X4.4615Y-2.7221
X4.4615Y-2.9779
X4.6385Y-2.7221
X4.6385Y-2.9779
X4.8615Y-2.7221
X4.8615Y-2.9779
X5.0385Y-2.7221
X5.0385Y-2.9779
T5
X7.95Y-3.2
X4.0Y-5.8
X3.75Y-6.2
X3.25Y-6.25
X6.45Y-6.0
X7.65Y-5.05
X7.95Y-2.8
X5.9Y-5.6
X3.85Y-4.15
X2.75Y-4.788
X2.75Y-4.896
X2.75Y-5.004
X2.75Y-5.112
X2.85Y-4.734
X2.85Y-4.842
X2.85Y-4.95
X2.85Y-5.058
X2.85Y-5.166
X7.2Y-4.75
T6
X6.35Y-4.5
X6.45Y-4.9
X6.55Y-4.5
X7.2Y-6.05
X7.6Y-5.95
X7.6Y-6.15
X7.2Y-5.55
X7.6Y-5.45
X7.6Y-5.65
T7
X2.8Y-4.457
X2.8Y-5.443
T0
M30
